<svg width="137" height="32" viewBox="0 0 137 32" fill="none" xmlns="http://www.w3.org/2000/svg">
<path d="M16 0H0V16H16V0Z" fill="#F2C94C"/>
<path d="M32 16H16V32H32V16Z" fill="#27AE60"/>
<path d="M19.2667 20.825C19.2667 20.1167 19.0167 19.575 18.5167 19.2C18.0167 18.8166 17.1167 18.4166 15.8167 18C14.5167 17.575 13.4875 17.1583 12.7292 16.75C10.6625 15.6333 9.62917 14.1292 9.62917 12.2375C9.62917 11.2542 9.90416 10.3791 10.4542 9.61248C11.0125 8.83749 11.8083 8.23333 12.8417 7.8C13.8834 7.36667 15.05 7.14998 16.3417 7.14998C17.6417 7.14998 18.8 7.38752 19.8167 7.86251C20.8333 8.32918 21.6209 8.99168 22.1792 9.85003C22.7459 10.7083 23.0292 11.6833 23.0292 12.775H19.2792C19.2792 11.9417 19.0167 11.2958 18.4917 10.8375C17.9667 10.3708 17.2292 10.1375 16.2792 10.1375C15.3625 10.1375 14.65 10.3333 14.1417 10.725C13.6333 11.1083 13.3792 11.6166 13.3792 12.25C13.3792 12.8417 13.675 13.3375 14.2667 13.7375C14.8667 14.1375 15.7459 14.5125 16.9042 14.8625C19.0375 15.5042 20.5917 16.3 21.5667 17.25C22.5417 18.2 23.0292 19.3834 23.0292 20.8C23.0292 22.375 22.4333 23.6125 21.2417 24.5125C20.05 25.4042 18.4459 25.85 16.4292 25.85C15.0292 25.85 13.7542 25.5958 12.6042 25.0875C11.4542 24.5708 10.575 23.8667 9.96667 22.975C9.36667 22.0833 9.06667 21.05 9.06667 19.875H12.8292C12.8292 21.8833 14.0292 22.8875 16.4292 22.8875C17.3209 22.8875 18.0167 22.7083 18.5167 22.35C19.0167 21.9834 19.2667 21.475 19.2667 20.825ZM28.8667 13.55C29.825 12.4 31.0292 11.825 32.4792 11.825C35.4125 11.825 36.9 13.5292 36.9417 16.9375V25.6H33.3292V17.0375C33.3292 16.2625 33.1625 15.6917 32.8292 15.325C32.4958 14.95 31.9417 14.7625 31.1667 14.7625C30.1083 14.7625 29.3417 15.1708 28.8667 15.9875V25.6H25.2542V6.4H28.8667V13.55ZM39.1042 18.7125C39.1042 17.3708 39.3625 16.175 39.8792 15.125C40.3958 14.075 41.1375 13.2625 42.1042 12.6875C43.0792 12.1125 44.2083 11.825 45.4917 11.825C47.3164 11.825 48.8044 12.3834 49.9543 13.5C51.1127 14.6166 51.7586 16.1333 51.8919 18.05L51.9164 18.975C51.9164 21.05 51.3378 22.7167 50.1794 23.975C49.021 25.225 47.4668 25.85 45.5167 25.85C43.5667 25.85 42.0083 25.225 40.8417 23.975C39.6834 22.725 39.1042 21.025 39.1042 18.875V18.7125ZM42.7167 18.975C42.7167 20.2583 42.9583 21.2417 43.4417 21.925C43.925 22.6 44.6167 22.9375 45.5167 22.9375C46.3917 22.9375 47.0748 22.6042 47.5666 21.9375C48.0583 21.2625 48.3042 20.1875 48.3042 18.7125C48.3042 17.4542 48.0583 16.4791 47.5666 15.7875C47.0748 15.0958 46.3834 14.75 45.4917 14.75C44.6083 14.75 43.925 15.0958 43.4417 15.7875C42.9583 16.4708 42.7167 17.5333 42.7167 18.975ZM65.9042 20.6875L67.6791 12.075H71.1666L67.7164 25.6H64.6919L62.1292 17.0875L59.5666 25.6H56.5543L53.1042 12.075H56.5916L58.3543 20.675L60.829 12.075H63.4418L65.9042 20.6875ZM89.0167 20.825C89.0167 20.1167 88.7666 19.575 88.2668 19.2C87.7666 18.8166 86.8668 18.4166 85.5666 18C84.2668 17.575 83.2375 17.1583 82.4791 16.75C80.4124 15.6333 79.3794 14.1292 79.3794 12.2375C79.3794 11.2542 79.654 10.3791 80.2044 9.61248C80.7623 8.83749 81.5586 8.23333 82.5916 7.8C83.6332 7.36667 84.8002 7.14998 86.0919 7.14998C87.3916 7.14998 88.55 7.38752 89.5666 7.86251C90.5831 8.32918 91.3708 8.99168 91.9292 9.85003C92.4956 10.7083 92.7794 11.6833 92.7794 12.775H89.029C89.029 11.9417 88.7666 11.2958 88.2418 10.8375C87.7164 10.3708 86.9794 10.1375 86.029 10.1375C85.1127 10.1375 84.4002 10.3333 83.8919 10.725C83.3831 11.1083 83.1292 11.6166 83.1292 12.25C83.1292 12.8417 83.4252 13.3375 84.0167 13.7375C84.6167 14.1375 85.4956 14.5125 86.654 14.8625C88.7874 15.5042 90.3415 16.3 91.3164 17.25C92.2919 18.2 92.7794 19.3834 92.7794 20.8C92.7794 22.375 92.1831 23.6125 90.9916 24.5125C89.8002 25.4042 88.1959 25.85 86.1794 25.85C84.7794 25.85 83.5042 25.5958 82.3543 25.0875C81.2044 24.5708 80.325 23.8667 79.7164 22.975C79.1164 22.0833 78.8167 21.05 78.8167 19.875H82.5794C82.5794 21.8833 83.7794 22.8875 86.1794 22.8875C87.0711 22.8875 87.7666 22.7083 88.2668 22.35C88.7666 21.9834 89.0167 21.475 89.0167 20.825ZM98.6167 13.55C99.5751 12.4 100.779 11.825 102.229 11.825C105.162 11.825 106.65 13.5292 106.692 16.9375V25.6H103.079V17.0375C103.079 16.2625 102.913 15.6917 102.579 15.325C102.246 14.95 101.692 14.7625 100.916 14.7625C99.8583 14.7625 99.0919 15.1708 98.6167 15.9875V25.6H95.0044V6.4H98.6167V13.55ZM108.854 18.7125C108.854 17.3708 109.113 16.175 109.629 15.125C110.146 14.075 110.888 13.2625 111.854 12.6875C112.829 12.1125 113.959 11.825 115.242 11.825C117.067 11.825 118.554 12.3834 119.704 13.5C120.863 14.6166 121.508 16.1333 121.642 18.05L121.667 18.975C121.667 21.05 121.088 22.7167 119.929 23.975C118.771 25.225 117.217 25.85 115.267 25.85C113.316 25.85 111.759 25.225 110.592 23.975C109.433 22.725 108.854 21.025 108.854 18.875V18.7125ZM112.467 18.975C112.467 20.2583 112.708 21.2417 113.192 21.925C113.675 22.6 114.367 22.9375 115.267 22.9375C116.141 22.9375 116.825 22.6042 117.316 21.9375C117.808 21.2625 118.054 20.1875 118.054 18.7125C118.054 17.4542 117.808 16.4791 117.316 15.7875C116.825 15.0958 116.133 14.75 115.242 14.75C114.359 14.75 113.675 15.0958 113.192 15.7875C112.708 16.4708 112.467 17.5333 112.467 18.975ZM136.067 18.9625C136.067 21.0458 135.592 22.7167 134.642 23.975C133.7 25.225 132.425 25.85 130.817 25.85C129.45 25.85 128.346 25.375 127.504 24.425V30.8H123.892V12.075H127.242L127.367 13.4C128.242 12.35 129.383 11.825 130.792 11.825C132.458 11.825 133.754 12.4417 134.679 13.675C135.604 14.9083 136.067 16.6083 136.067 18.775V18.9625ZM132.454 18.7C132.454 17.4417 132.229 16.4708 131.779 15.7875C131.338 15.1042 130.692 14.7625 129.842 14.7625C128.708 14.7625 127.929 15.1958 127.504 16.0625V21.6C127.946 22.4917 128.733 22.9375 129.867 22.9375C131.592 22.9375 132.454 21.525 132.454 18.7Z" fill="#3F3D56"/>
</svg>
