<svg width="285" height="75" viewBox="0 0 285 75" fill="none" xmlns="http://www.w3.org/2000/svg">
<rect width="285" height="75" fill="white"/>
<rect x="13" y="7" width="30" height="30" fill="#F2C94C"/>
<rect x="43" y="37" width="30" height="30" fill="#27AE60"/>
<path d="M48.8817 46.0469C48.8817 44.7188 48.413 43.7031 47.4755 43C46.538 42.2812 44.8505 41.5312 42.413 40.75C39.9755 39.9531 38.0458 39.1719 36.6239 38.4062C32.7489 36.3125 30.8114 33.4922 30.8114 29.9453C30.8114 28.1016 31.327 26.4609 32.3583 25.0234C33.4052 23.5703 34.8973 22.4375 36.8348 21.625C38.788 20.8125 40.9755 20.4062 43.3973 20.4062C45.8348 20.4062 48.0067 20.8516 49.913 21.7422C51.8192 22.6172 53.2958 23.8594 54.3427 25.4688C55.4052 27.0781 55.9364 28.9062 55.9364 30.9531H48.9052C48.9052 29.3906 48.413 28.1797 47.4286 27.3203C46.4442 26.4453 45.0614 26.0078 43.2802 26.0078C41.5614 26.0078 40.2255 26.375 39.2723 27.1094C38.3192 27.8281 37.8427 28.7812 37.8427 29.9688C37.8427 31.0781 38.3973 32.0078 39.5067 32.7578C40.6317 33.5078 42.2802 34.2109 44.452 34.8672C48.452 36.0703 51.3661 37.5625 53.1942 39.3438C55.0223 41.125 55.9364 43.3438 55.9364 46C55.9364 48.9531 54.8192 51.2734 52.5848 52.9609C50.3505 54.6328 47.3427 55.4688 43.5614 55.4688C40.9364 55.4688 38.5458 54.9922 36.3895 54.0391C34.2333 53.0703 32.5848 51.75 31.4442 50.0781C30.3192 48.4062 29.7567 46.4688 29.7567 44.2656H36.8114C36.8114 48.0312 39.0614 49.9141 43.5614 49.9141C45.2333 49.9141 46.538 49.5781 47.4755 48.9062C48.413 48.2188 48.8817 47.2656 48.8817 46.0469ZM66.8817 32.4062C68.6786 30.25 70.9364 29.1719 73.6552 29.1719C79.1552 29.1719 81.9442 32.3672 82.0223 38.7578V55H75.2489V38.9453C75.2489 37.4922 74.9364 36.4219 74.3114 35.7344C73.6864 35.0312 72.6473 34.6797 71.1942 34.6797C69.2098 34.6797 67.7723 35.4453 66.8817 36.9766V55H60.1083V19H66.8817V32.4062ZM86.077 42.0859C86.077 39.5703 86.5614 37.3281 87.5302 35.3594C88.4989 33.3906 89.8895 31.8672 91.702 30.7891C93.5302 29.7109 95.6473 29.1719 98.0536 29.1719C101.475 29.1719 104.265 30.2188 106.421 32.3125C108.593 34.4062 109.804 37.25 110.054 40.8438L110.1 42.5781C110.1 46.4688 109.015 49.5938 106.843 51.9531C104.671 54.2969 101.757 55.4688 98.1005 55.4688C94.4442 55.4688 91.5223 54.2969 89.3348 51.9531C87.163 49.6094 86.077 46.4219 86.077 42.3906V42.0859ZM92.8505 42.5781C92.8505 44.9844 93.3036 46.8281 94.2098 48.1094C95.1161 49.375 96.413 50.0078 98.1005 50.0078C99.7411 50.0078 101.022 49.3828 101.944 48.1328C102.866 46.8672 103.327 44.8516 103.327 42.0859C103.327 39.7266 102.866 37.8984 101.944 36.6016C101.022 35.3047 99.7255 34.6562 98.0536 34.6562C96.3973 34.6562 95.1161 35.3047 94.2098 36.6016C93.3036 37.8828 92.8505 39.875 92.8505 42.5781ZM136.327 45.7891L139.655 29.6406H146.194L139.725 55H134.054L129.249 39.0391L124.444 55H118.796L112.327 29.6406H118.866L122.171 45.7656L126.811 29.6406H131.71L136.327 45.7891ZM179.663 46.0469C179.663 44.7188 179.194 43.7031 178.257 43C177.319 42.2812 175.632 41.5312 173.194 40.75C170.757 39.9531 168.827 39.1719 167.405 38.4062C163.53 36.3125 161.593 33.4922 161.593 29.9453C161.593 28.1016 162.108 26.4609 163.14 25.0234C164.186 23.5703 165.679 22.4375 167.616 21.625C169.569 20.8125 171.757 20.4062 174.179 20.4062C176.616 20.4062 178.788 20.8516 180.694 21.7422C182.6 22.6172 184.077 23.8594 185.124 25.4688C186.186 27.0781 186.718 28.9062 186.718 30.9531H179.686C179.686 29.3906 179.194 28.1797 178.21 27.3203C177.225 26.4453 175.843 26.0078 174.061 26.0078C172.343 26.0078 171.007 26.375 170.054 27.1094C169.1 27.8281 168.624 28.7812 168.624 29.9688C168.624 31.0781 169.179 32.0078 170.288 32.7578C171.413 33.5078 173.061 34.2109 175.233 34.8672C179.233 36.0703 182.147 37.5625 183.975 39.3438C185.804 41.125 186.718 43.3438 186.718 46C186.718 48.9531 185.6 51.2734 183.366 52.9609C181.132 54.6328 178.124 55.4688 174.343 55.4688C171.718 55.4688 169.327 54.9922 167.171 54.0391C165.015 53.0703 163.366 51.75 162.225 50.0781C161.1 48.4062 160.538 46.4688 160.538 44.2656H167.593C167.593 48.0312 169.843 49.9141 174.343 49.9141C176.015 49.9141 177.319 49.5781 178.257 48.9062C179.194 48.2188 179.663 47.2656 179.663 46.0469ZM197.663 32.4062C199.46 30.25 201.718 29.1719 204.436 29.1719C209.936 29.1719 212.725 32.3672 212.804 38.7578V55H206.03V38.9453C206.03 37.4922 205.718 36.4219 205.093 35.7344C204.468 35.0312 203.429 34.6797 201.975 34.6797C199.991 34.6797 198.554 35.4453 197.663 36.9766V55H190.89V19H197.663V32.4062ZM216.858 42.0859C216.858 39.5703 217.343 37.3281 218.311 35.3594C219.28 33.3906 220.671 31.8672 222.483 30.7891C224.311 29.7109 226.429 29.1719 228.835 29.1719C232.257 29.1719 235.046 30.2188 237.202 32.3125C239.374 34.4062 240.585 37.25 240.835 40.8438L240.882 42.5781C240.882 46.4688 239.796 49.5938 237.624 51.9531C235.452 54.2969 232.538 55.4688 228.882 55.4688C225.225 55.4688 222.304 54.2969 220.116 51.9531C217.944 49.6094 216.858 46.4219 216.858 42.3906V42.0859ZM223.632 42.5781C223.632 44.9844 224.085 46.8281 224.991 48.1094C225.897 49.375 227.194 50.0078 228.882 50.0078C230.522 50.0078 231.804 49.3828 232.725 48.1328C233.647 46.8672 234.108 44.8516 234.108 42.0859C234.108 39.7266 233.647 37.8984 232.725 36.6016C231.804 35.3047 230.507 34.6562 228.835 34.6562C227.179 34.6562 225.897 35.3047 224.991 36.6016C224.085 37.8828 223.632 39.875 223.632 42.5781ZM267.882 42.5547C267.882 46.4609 266.991 49.5938 265.21 51.9531C263.444 54.2969 261.054 55.4688 258.038 55.4688C255.475 55.4688 253.405 54.5781 251.827 52.7969V64.75H245.054V29.6406H251.335L251.569 32.125C253.21 30.1562 255.35 29.1719 257.991 29.1719C261.116 29.1719 263.546 30.3281 265.28 32.6406C267.015 34.9531 267.882 38.1406 267.882 42.2031V42.5547ZM261.108 42.0625C261.108 39.7031 260.686 37.8828 259.843 36.6016C259.015 35.3203 257.804 34.6797 256.21 34.6797C254.085 34.6797 252.624 35.4922 251.827 37.1172V47.5C252.655 49.1719 254.132 50.0078 256.257 50.0078C259.491 50.0078 261.108 47.3594 261.108 42.0625Z" fill="#3F3D56"/>
</svg>
