<svg width="80" height="75" viewBox="0 0 80 75" fill="none" xmlns="http://www.w3.org/2000/svg">
<rect width="80" height="75" fill="white"/>
<rect x="7" y="7" width="30" height="30" fill="#F2C94C"/>
<rect x="44" y="37" width="30" height="30" fill="#27AE60"/>
<path d="M44.6562 47.0625C44.6562 45.2917 44.0312 43.9375 42.7812 43C41.5312 42.0417 39.2812 41.0417 36.0312 40C32.7812 38.9375 30.2083 37.8958 28.3125 36.875C23.1458 34.0833 20.5625 30.3229 20.5625 25.5938C20.5625 23.1354 21.25 20.9479 22.625 19.0312C24.0208 17.0938 26.0104 15.5833 28.5938 14.5C31.1979 13.4167 34.1146 12.875 37.3438 12.875C40.5938 12.875 43.4896 13.4688 46.0312 14.6562C48.5729 15.8229 50.5417 17.4792 51.9375 19.625C53.3542 21.7708 54.0625 24.2083 54.0625 26.9375H44.6875C44.6875 24.8542 44.0312 23.2396 42.7188 22.0938C41.4062 20.9271 39.5625 20.3438 37.1875 20.3438C34.8958 20.3438 33.1146 20.8333 31.8438 21.8125C30.5729 22.7708 29.9375 24.0417 29.9375 25.625C29.9375 27.1042 30.6771 28.3438 32.1562 29.3438C33.6562 30.3438 35.8542 31.2812 38.75 32.1562C44.0833 33.7604 47.9688 35.75 50.4062 38.125C52.8438 40.5 54.0625 43.4583 54.0625 47C54.0625 50.9375 52.5729 54.0312 49.5938 56.2812C46.6146 58.5104 42.6042 59.625 37.5625 59.625C34.0625 59.625 30.875 58.9896 28 57.7188C25.125 56.4271 22.9271 54.6667 21.4062 52.4375C19.9062 50.2083 19.1562 47.625 19.1562 44.6875H28.5625C28.5625 49.7083 31.5625 52.2188 37.5625 52.2188C39.7917 52.2188 41.5312 51.7708 42.7812 50.875C44.0312 49.9583 44.6562 48.6875 44.6562 47.0625Z" fill="#27AE60"/>
<path d="M51.6562 47.0625C51.6562 45.2917 51.0312 43.9375 49.7812 43C48.5312 42.0417 46.2812 41.0417 43.0312 40C39.7812 38.9375 37.2083 37.8958 35.3125 36.875C30.1458 34.0833 27.5625 30.3229 27.5625 25.5938C27.5625 23.1354 28.25 20.9479 29.625 19.0312C31.0208 17.0938 33.0104 15.5833 35.5938 14.5C38.1979 13.4167 41.1146 12.875 44.3438 12.875C47.5938 12.875 50.4896 13.4688 53.0312 14.6562C55.5729 15.8229 57.5417 17.4792 58.9375 19.625C60.3542 21.7708 61.0625 24.2083 61.0625 26.9375H51.6875C51.6875 24.8542 51.0312 23.2396 49.7188 22.0938C48.4062 20.9271 46.5625 20.3438 44.1875 20.3438C41.8958 20.3438 40.1146 20.8333 38.8438 21.8125C37.5729 22.7708 36.9375 24.0417 36.9375 25.625C36.9375 27.1042 37.6771 28.3438 39.1562 29.3438C40.6562 30.3438 42.8542 31.2812 45.75 32.1562C51.0833 33.7604 54.9688 35.75 57.4062 38.125C59.8438 40.5 61.0625 43.4583 61.0625 47C61.0625 50.9375 59.5729 54.0312 56.5938 56.2812C53.6146 58.5104 49.6042 59.625 44.5625 59.625C41.0625 59.625 37.875 58.9896 35 57.7188C32.125 56.4271 29.9271 54.6667 28.4062 52.4375C26.9062 50.2083 26.1562 47.625 26.1562 44.6875H35.5625C35.5625 49.7083 38.5625 52.2188 44.5625 52.2188C46.7917 52.2188 48.5312 51.7708 49.7812 50.875C51.0312 49.9583 51.6562 48.6875 51.6562 47.0625Z" fill="#F2C94C"/>
</svg>
