<svg width="628" height="554" viewBox="0 0 628 554" fill="none" xmlns="http://www.w3.org/2000/svg">
<rect x="165.793" y="158" width="23.1812" height="110.016" transform="rotate(45 165.793 158)" fill="#E5E5E5"/>
<rect x="131.793" y="80" width="23.1812" height="110.016" transform="rotate(45 131.793 80)" fill="#E5E5E5"/>
<rect x="39.7934" y="108" width="23.1812" height="110.016" transform="rotate(45 39.7934 108)" fill="#E5E5E5"/>
<circle cx="181.589" cy="40.5891" r="18.8013" transform="rotate(45 181.589 40.5891)" fill="#E5E5E5"/>
<rect x="63.9827" y="26" width="16" height="75.9351" transform="rotate(45 63.9827 26)" fill="#E5E5E5"/>
<rect x="329.983" y="49" width="16" height="75.9351" transform="rotate(45 329.983 49)" fill="#E5E5E5"/>
<circle cx="52.3137" cy="278.314" r="8" transform="rotate(45 52.3137 278.314)" fill="#E5E5E5"/>
<rect x="258.983" y="14" width="16" height="75.9351" transform="rotate(45 258.983 14)" fill="#E5E5E5"/>
<circle cx="-9.6863" cy="107.314" r="8" transform="rotate(45 -9.6863 107.314)" fill="#E5E5E5"/>
<circle cx="76.3137" cy="91.3137" r="8" transform="rotate(45 76.3137 91.3137)" fill="#E5E5E5"/>
<circle cx="129.314" cy="158.314" r="8" transform="rotate(45 129.314 158.314)" fill="#E5E5E5"/>
<circle cx="221.589" cy="150.589" r="18.8013" transform="rotate(45 221.589 150.589)" fill="#E5E5E5"/>
<circle cx="23.589" cy="218.589" r="18.8013" transform="rotate(45 23.589 218.589)" fill="#E5E5E5"/>
<rect x="130.793" y="344" width="23.1812" height="110.016" transform="rotate(45 130.793 344)" fill="#E5E5E5"/>
<rect x="38.7934" y="372" width="23.1812" height="110.016" transform="rotate(45 38.7934 372)" fill="#E5E5E5"/>
<circle cx="166.589" cy="263.589" r="18.8013" transform="rotate(45 166.589 263.589)" fill="#E5E5E5"/>
<rect x="62.9828" y="290" width="16" height="75.9351" transform="rotate(45 62.9828 290)" fill="#E5E5E5"/>
<circle cx="51.3138" cy="542.314" r="8" transform="rotate(45 51.3138 542.314)" fill="#E5E5E5"/>
<rect x="227.983" y="278" width="16" height="75.9351" transform="rotate(45 227.983 278)" fill="#E5E5E5"/>
<circle cx="-10.6862" cy="371.314" r="8" transform="rotate(45 -10.6862 371.314)" fill="#E5E5E5"/>
<circle cx="75.3138" cy="355.314" r="8" transform="rotate(45 75.3138 355.314)" fill="#E5E5E5"/>
<circle cx="128.314" cy="422.314" r="8" transform="rotate(45 128.314 422.314)" fill="#E5E5E5"/>
<circle cx="200.589" cy="389.589" r="18.8013" transform="rotate(45 200.589 389.589)" fill="#E5E5E5"/>
<circle cx="308.589" cy="317.589" r="18.8013" transform="rotate(45 308.589 317.589)" fill="#E5E5E5"/>
<circle cx="22.5892" cy="482.589" r="18.8013" transform="rotate(45 22.5892 482.589)" fill="#E5E5E5"/>
<rect x="462.793" y="96" width="23.1812" height="110.016" transform="rotate(45 462.793 96)" fill="#E5E5E5"/>
<rect x="301.793" y="150" width="23.1812" height="110.016" transform="rotate(45 301.793 150)" fill="#E5E5E5"/>
<circle cx="526.589" cy="40.5891" r="18.8013" transform="rotate(45 526.589 40.5891)" fill="#E5E5E5"/>
<rect x="408.983" y="26" width="16" height="75.9351" transform="rotate(45 408.983 26)" fill="#E5E5E5"/>
<circle cx="367.314" cy="252.314" r="8" transform="rotate(45 367.314 252.314)" fill="#E5E5E5"/>
<rect x="603.983" y="14" width="16" height="75.9351" transform="rotate(45 603.983 14)" fill="#E5E5E5"/>
<circle cx="335.314" cy="107.314" r="8" transform="rotate(45 335.314 107.314)" fill="#E5E5E5"/>
<circle cx="421.314" cy="91.3137" r="8" transform="rotate(45 421.314 91.3137)" fill="#E5E5E5"/>
<circle cx="474.314" cy="158.314" r="8" transform="rotate(45 474.314 158.314)" fill="#E5E5E5"/>
<circle cx="566.589" cy="150.589" r="18.8013" transform="rotate(45 566.589 150.589)" fill="#E5E5E5"/>
<circle cx="324.589" cy="218.589" r="18.8013" transform="rotate(45 324.589 218.589)" fill="#E5E5E5"/>
<rect x="177.793" y="144" width="23.1812" height="110.016" transform="rotate(45 177.793 144)" fill="#F2C94C"/>
<rect x="143.793" y="66" width="23.1812" height="110.016" transform="rotate(45 143.793 66)" fill="#F2C94C"/>
<rect x="51.7934" y="94" width="23.1812" height="110.016" transform="rotate(45 51.7934 94)" fill="#F2C94C"/>
<circle cx="193.589" cy="26.5891" r="18.8013" transform="rotate(45 193.589 26.5891)" fill="#F2C94C"/>
<rect x="75.9827" y="12" width="16" height="75.9351" transform="rotate(45 75.9827 12)" fill="#F2C94C"/>
<rect x="341.983" y="35" width="16" height="75.9351" transform="rotate(45 341.983 35)" fill="#F2C94C"/>
<circle cx="64.3137" cy="264.314" r="8" transform="rotate(45 64.3137 264.314)" fill="#F2C94C"/>
<rect x="270.983" width="16" height="75.9351" transform="rotate(45 270.983 0)" fill="#F2C94C"/>
<circle cx="2.3137" cy="93.3137" r="8" transform="rotate(45 2.3137 93.3137)" fill="#F2C94C"/>
<circle cx="88.3137" cy="77.3137" r="8" transform="rotate(45 88.3137 77.3137)" fill="#F2C94C"/>
<circle cx="141.314" cy="144.314" r="8" transform="rotate(45 141.314 144.314)" fill="#F2C94C"/>
<circle cx="233.589" cy="136.589" r="18.8013" transform="rotate(45 233.589 136.589)" fill="#F2C94C"/>
<circle cx="35.589" cy="204.589" r="18.8013" transform="rotate(45 35.589 204.589)" fill="#F2C94C"/>
<rect x="142.793" y="330" width="23.1812" height="110.016" transform="rotate(45 142.793 330)" fill="#F2C94C"/>
<rect x="50.7934" y="358" width="23.1812" height="110.016" transform="rotate(45 50.7934 358)" fill="#F2C94C"/>
<circle cx="178.589" cy="249.589" r="18.8013" transform="rotate(45 178.589 249.589)" fill="#F2C94C"/>
<rect x="74.9828" y="276" width="16" height="75.9351" transform="rotate(45 74.9828 276)" fill="#F2C94C"/>
<circle cx="63.3138" cy="528.314" r="8" transform="rotate(45 63.3138 528.314)" fill="#F2C94C"/>
<rect x="239.983" y="264" width="16" height="75.9351" transform="rotate(45 239.983 264)" fill="#F2C94C"/>
<circle cx="1.31377" cy="357.314" r="8" transform="rotate(45 1.31377 357.314)" fill="#F2C94C"/>
<circle cx="87.3138" cy="341.314" r="8" transform="rotate(45 87.3138 341.314)" fill="#F2C94C"/>
<circle cx="140.314" cy="408.314" r="8" transform="rotate(45 140.314 408.314)" fill="#F2C94C"/>
<circle cx="212.589" cy="375.589" r="18.8013" transform="rotate(45 212.589 375.589)" fill="#F2C94C"/>
<circle cx="320.589" cy="303.589" r="18.8013" transform="rotate(45 320.589 303.589)" fill="#F2C94C"/>
<circle cx="34.5892" cy="468.589" r="18.8013" transform="rotate(45 34.5892 468.589)" fill="#F2C94C"/>
<rect x="474.793" y="82" width="23.1812" height="110.016" transform="rotate(45 474.793 82)" fill="#F2C94C"/>
<rect x="313.793" y="136" width="23.1812" height="110.016" transform="rotate(45 313.793 136)" fill="#F2C94C"/>
<circle cx="538.589" cy="26.5891" r="18.8013" transform="rotate(45 538.589 26.5891)" fill="#F2C94C"/>
<rect x="420.983" y="12" width="16" height="75.9351" transform="rotate(45 420.983 12)" fill="#F2C94C"/>
<circle cx="379.314" cy="238.314" r="8" transform="rotate(45 379.314 238.314)" fill="#F2C94C"/>
<rect x="615.983" width="16" height="75.9351" transform="rotate(45 615.983 0)" fill="#F2C94C"/>
<circle cx="347.314" cy="93.3137" r="8" transform="rotate(45 347.314 93.3137)" fill="#F2C94C"/>
<circle cx="433.314" cy="77.3137" r="8" transform="rotate(45 433.314 77.3137)" fill="#F2C94C"/>
<circle cx="486.314" cy="144.314" r="8" transform="rotate(45 486.314 144.314)" fill="#F2C94C"/>
<circle cx="578.589" cy="136.589" r="18.8013" transform="rotate(45 578.589 136.589)" fill="#F2C94C"/>
<circle cx="336.589" cy="204.589" r="18.8013" transform="rotate(45 336.589 204.589)" fill="#F2C94C"/>
</svg>
