<svg width="256" height="60" viewBox="0 0 256 60" fill="none" xmlns="http://www.w3.org/2000/svg">
<path d="M30 0H0V30H30V0Z" fill="#F2C94C"/>
<path d="M60 30H30V60H60V30Z" fill="#27AE60"/>
<path d="M36.125 39.0469C36.125 37.7188 35.6563 36.7031 34.7188 36C33.7813 35.2812 32.0938 34.5312 29.6563 33.75C27.2188 32.9531 25.2891 32.1719 23.8672 31.4062C19.9922 29.3125 18.0547 26.4922 18.0547 22.9453C18.0547 21.1016 18.5703 19.4609 19.6016 18.0234C20.6485 16.5703 22.1406 15.4375 24.0781 14.625C26.0313 13.8125 28.2188 13.4062 30.6406 13.4062C33.0781 13.4062 35.25 13.8516 37.1563 14.7422C39.0625 15.6172 40.5391 16.8594 41.586 18.4688C42.6485 20.0781 43.1797 21.9062 43.1797 23.9531H36.1485C36.1485 22.3906 35.6563 21.1797 34.6719 20.3203C33.6875 19.4453 32.3047 19.0078 30.5235 19.0078C28.8047 19.0078 27.4688 19.375 26.5156 20.1094C25.5625 20.8281 25.086 21.7812 25.086 22.9688C25.086 24.0781 25.6406 25.0078 26.75 25.7578C27.875 26.5078 29.5235 27.2109 31.6953 27.8672C35.6953 29.0703 38.6094 30.5625 40.4375 32.3438C42.2656 34.125 43.1797 36.3438 43.1797 39C43.1797 41.9531 42.0625 44.2734 39.8281 45.9609C37.5938 47.6328 34.586 48.4688 30.8047 48.4688C28.1797 48.4688 25.7891 47.9922 23.6328 47.0391C21.4766 46.0703 19.8281 44.75 18.6875 43.0781C17.5625 41.4062 17 39.4688 17 37.2656H24.0547C24.0547 41.0312 26.3047 42.9141 30.8047 42.9141C32.4766 42.9141 33.7813 42.5781 34.7188 41.9062C35.6563 41.2188 36.125 40.2656 36.125 39.0469ZM54.125 25.4062C55.9219 23.25 58.1797 22.1719 60.8985 22.1719C66.3985 22.1719 69.1875 25.3672 69.2656 31.7578V48H62.4922V31.9453C62.4922 30.4922 62.1797 29.4219 61.5547 28.7344C60.9297 28.0312 59.8906 27.6797 58.4375 27.6797C56.4531 27.6797 55.0156 28.4453 54.125 29.9766V48H47.3516V12H54.125V25.4062ZM73.3203 35.0859C73.3203 32.5703 73.8047 30.3281 74.7735 28.3594C75.7422 26.3906 77.1328 24.8672 78.9453 23.7891C80.7735 22.7109 82.8906 22.1719 85.2969 22.1719C88.7183 22.1719 91.5083 23.2188 93.6643 25.3125C95.8363 27.4062 97.0473 30.25 97.2973 33.8438L97.3433 35.5781C97.3433 39.4688 96.2583 42.5938 94.0863 44.9531C91.9143 47.2969 89.0003 48.4688 85.3438 48.4688C81.6875 48.4688 78.7656 47.2969 76.5781 44.9531C74.4063 42.6094 73.3203 39.4219 73.3203 35.3906V35.0859ZM80.0938 35.5781C80.0938 37.9844 80.5469 39.8281 81.4531 41.1094C82.3594 42.375 83.6563 43.0078 85.3438 43.0078C86.9844 43.0078 88.2653 42.3828 89.1873 41.1328C90.1093 39.8672 90.5703 37.8516 90.5703 35.0859C90.5703 32.7266 90.1093 30.8984 89.1873 29.6016C88.2653 28.3047 86.9688 27.6562 85.2969 27.6562C83.6406 27.6562 82.3594 28.3047 81.4531 29.6016C80.5469 30.8828 80.0938 32.875 80.0938 35.5781ZM123.57 38.7891L126.898 22.6406H133.437L126.968 48H121.297L116.492 32.0391L111.687 48H106.039L99.5703 22.6406H106.109L109.414 38.7656L114.054 22.6406H118.953L123.57 38.7891ZM166.906 39.0469C166.906 37.7188 166.437 36.7031 165.5 36C164.562 35.2812 162.875 34.5312 160.437 33.75C158 32.9531 156.07 32.1719 154.648 31.4062C150.773 29.3125 148.836 26.4922 148.836 22.9453C148.836 21.1016 149.351 19.4609 150.383 18.0234C151.429 16.5703 152.922 15.4375 154.859 14.625C156.812 13.8125 159 13.4062 161.422 13.4062C163.859 13.4062 166.031 13.8516 167.937 14.7422C169.843 15.6172 171.32 16.8594 172.367 18.4688C173.429 20.0781 173.961 21.9062 173.961 23.9531H166.929C166.929 22.3906 166.437 21.1797 165.453 20.3203C164.468 19.4453 163.086 19.0078 161.304 19.0078C159.586 19.0078 158.25 19.375 157.297 20.1094C156.343 20.8281 155.867 21.7812 155.867 22.9688C155.867 24.0781 156.422 25.0078 157.531 25.7578C158.656 26.5078 160.304 27.2109 162.476 27.8672C166.476 29.0703 169.39 30.5625 171.218 32.3438C173.047 34.125 173.961 36.3438 173.961 39C173.961 41.9531 172.843 44.2734 170.609 45.9609C168.375 47.6328 165.367 48.4688 161.586 48.4688C158.961 48.4688 156.57 47.9922 154.414 47.0391C152.258 46.0703 150.609 44.75 149.468 43.0781C148.343 41.4062 147.781 39.4688 147.781 37.2656H154.836C154.836 41.0312 157.086 42.9141 161.586 42.9141C163.258 42.9141 164.562 42.5781 165.5 41.9062C166.437 41.2188 166.906 40.2656 166.906 39.0469ZM184.906 25.4062C186.703 23.25 188.961 22.1719 191.679 22.1719C197.179 22.1719 199.968 25.3672 200.047 31.7578V48H193.273V31.9453C193.273 30.4922 192.961 29.4219 192.336 28.7344C191.711 28.0312 190.672 27.6797 189.218 27.6797C187.234 27.6797 185.797 28.4453 184.906 29.9766V48H178.133V12H184.906V25.4062ZM204.101 35.0859C204.101 32.5703 204.586 30.3281 205.554 28.3594C206.523 26.3906 207.914 24.8672 209.726 23.7891C211.554 22.7109 213.672 22.1719 216.078 22.1719C219.5 22.1719 222.289 23.2188 224.445 25.3125C226.617 27.4062 227.828 30.25 228.078 33.8438L228.125 35.5781C228.125 39.4688 227.039 42.5938 224.867 44.9531C222.695 47.2969 219.781 48.4688 216.125 48.4688C212.468 48.4688 209.547 47.2969 207.359 44.9531C205.187 42.6094 204.101 39.4219 204.101 35.3906V35.0859ZM210.875 35.5781C210.875 37.9844 211.328 39.8281 212.234 41.1094C213.14 42.375 214.437 43.0078 216.125 43.0078C217.765 43.0078 219.047 42.3828 219.968 41.1328C220.89 39.8672 221.351 37.8516 221.351 35.0859C221.351 32.7266 220.89 30.8984 219.968 29.6016C219.047 28.3047 217.75 27.6562 216.078 27.6562C214.422 27.6562 213.14 28.3047 212.234 29.6016C211.328 30.8828 210.875 32.875 210.875 35.5781ZM255.125 35.5547C255.125 39.4609 254.234 42.5938 252.453 44.9531C250.687 47.2969 248.297 48.4688 245.281 48.4688C242.718 48.4688 240.648 47.5781 239.07 45.7969V57.75H232.297V22.6406H238.578L238.812 25.125C240.453 23.1562 242.593 22.1719 245.234 22.1719C248.359 22.1719 250.789 23.3281 252.523 25.6406C254.258 27.9531 255.125 31.1406 255.125 35.2031V35.5547ZM248.351 35.0625C248.351 32.7031 247.929 30.8828 247.086 29.6016C246.258 28.3203 245.047 27.6797 243.453 27.6797C241.328 27.6797 239.867 28.4922 239.07 30.1172V40.5C239.898 42.1719 241.375 43.0078 243.5 43.0078C246.734 43.0078 248.351 40.3594 248.351 35.0625Z" fill="#3F3D56"/>
</svg>
