<svg width="67" height="60" viewBox="0 0 67 60" fill="none" xmlns="http://www.w3.org/2000/svg">
<path d="M30 0H0V30H30V0Z" fill="#F2C94C"/>
<path d="M67 30H37V60H67V30Z" fill="#27AE60"/>
<path d="M37.6562 40.0625C37.6562 38.2917 37.0312 36.9375 35.7812 36C34.5312 35.0417 32.2812 34.0417 29.0312 33C25.7812 31.9375 23.2083 30.8958 21.3125 29.875C16.1458 27.0833 13.5625 23.3229 13.5625 18.5938C13.5625 16.1354 14.25 13.9479 15.625 12.0312C17.0208 10.0938 19.0104 8.5833 21.5938 7.5C24.1979 6.4167 27.1146 5.875 30.3438 5.875C33.5938 5.875 36.4896 6.4688 39.0312 7.6562C41.5729 8.8229 43.5417 10.4792 44.9375 12.625C46.3542 14.7708 47.0625 17.2083 47.0625 19.9375H37.6875C37.6875 17.8542 37.0312 16.2396 35.7188 15.0938C34.4062 13.9271 32.5625 13.3438 30.1875 13.3438C27.8958 13.3438 26.1146 13.8333 24.8438 14.8125C23.5729 15.7708 22.9375 17.0417 22.9375 18.625C22.9375 20.1042 23.6771 21.3438 25.1562 22.3438C26.6562 23.3438 28.8542 24.2812 31.75 25.1562C37.0833 26.7604 40.9688 28.75 43.4062 31.125C45.8438 33.5 47.0625 36.4583 47.0625 40C47.0625 43.9375 45.5729 47.0312 42.5938 49.2812C39.6146 51.5104 35.6042 52.625 30.5625 52.625C27.0625 52.625 23.875 51.9896 21 50.7188C18.125 49.4271 15.9271 47.6667 14.4062 45.4375C12.9062 43.2083 12.1562 40.625 12.1562 37.6875H21.5625C21.5625 42.7083 24.5625 45.2188 30.5625 45.2188C32.7917 45.2188 34.5312 44.7708 35.7812 43.875C37.0312 42.9583 37.6562 41.6875 37.6562 40.0625Z" fill="#27AE60"/>
<path d="M44.6562 40.0625C44.6562 38.2917 44.0312 36.9375 42.7812 36C41.5312 35.0417 39.2812 34.0417 36.0312 33C32.7812 31.9375 30.2083 30.8958 28.3125 29.875C23.1458 27.0833 20.5625 23.3229 20.5625 18.5938C20.5625 16.1354 21.25 13.9479 22.625 12.0312C24.0208 10.0938 26.0104 8.5833 28.5938 7.5C31.1979 6.4167 34.1146 5.875 37.3438 5.875C40.5938 5.875 43.4896 6.4688 46.0312 7.6562C48.5729 8.8229 50.5417 10.4792 51.9375 12.625C53.3542 14.7708 54.0625 17.2083 54.0625 19.9375H44.6875C44.6875 17.8542 44.0312 16.2396 42.7188 15.0938C41.4062 13.9271 39.5625 13.3438 37.1875 13.3438C34.8958 13.3438 33.1146 13.8333 31.8438 14.8125C30.5729 15.7708 29.9375 17.0417 29.9375 18.625C29.9375 20.1042 30.6771 21.3438 32.1562 22.3438C33.6562 23.3438 35.8542 24.2812 38.75 25.1562C44.0833 26.7604 47.9688 28.75 50.4062 31.125C52.8438 33.5 54.0625 36.4583 54.0625 40C54.0625 43.9375 52.5729 47.0312 49.5938 49.2812C46.6146 51.5104 42.6042 52.625 37.5625 52.625C34.0625 52.625 30.875 51.9896 28 50.7188C25.125 49.4271 22.9271 47.6667 21.4062 45.4375C19.9062 43.2083 19.1562 40.625 19.1562 37.6875H28.5625C28.5625 42.7083 31.5625 45.2188 37.5625 45.2188C39.7917 45.2188 41.5312 44.7708 42.7812 43.875C44.0312 42.9583 44.6562 41.6875 44.6562 40.0625Z" fill="#F2C94C"/>
</svg>
